<svg version="1.1" id="Layer_1" xmlns="http://www.w3.org/2000/svg" xmlns:xlink="http://www.w3.org/1999/xlink" x="0px" y="0px"
	 width="100%" viewBox="0 0 512 512" enable-background="new 0 0 512 512" xml:space="preserve">
<path fill="#000000" opacity="1.000000" stroke="none" 
	d="
M513.000000,235.000000 
	C513.000000,249.354233 513.000000,263.708466 512.596558,278.691162 
	C510.231140,291.979431 508.867523,304.768066 506.175018,317.270508 
	C501.455170,339.186859 492.960938,359.719818 482.298492,379.486603 
	C472.542267,397.573456 460.824951,414.210541 446.991791,429.233978 
	C438.182678,438.801056 428.268341,447.403473 418.435852,455.963226 
	C402.272766,470.034180 383.989716,480.876221 364.575134,489.851227 
	C341.038910,500.731598 316.540009,508.230621 290.680878,511.036407 
	C286.762360,511.461578 282.892426,512.334290 279.000000,513.000000 
	C264.645782,513.000000 250.291550,513.000000 235.308868,512.596558 
	C225.456604,511.120270 216.100479,510.695648 207.035263,508.845673 
	C185.137253,504.376801 164.016373,497.296478 143.941513,487.408783 
	C122.532051,476.863800 102.806465,463.639801 85.212273,447.547821 
	C70.307114,433.915314 56.857033,418.892700 45.470314,402.065948 
	C34.175903,385.375671 24.681969,367.794403 17.485603,348.980713 
	C11.852645,334.254272 7.319791,319.230438 4.932540,303.583160 
	C3.979166,297.334229 2.331577,291.191223 1.000001,285.000000 
	C1.000000,266.645782 1.000000,248.291550 1.386770,229.330872 
	C2.856441,221.518265 3.583403,214.236801 5.088576,207.119919 
	C9.715297,185.243515 16.561260,164.036682 26.576378,144.030182 
	C36.581573,124.043503 48.793919,105.502571 63.668461,88.640778 
	C78.292892,72.062508 94.469231,57.355263 112.671654,44.932613 
	C128.475235,34.147099 145.300140,25.229252 163.197678,18.248610 
	C182.493866,10.722448 202.268158,5.406270 222.833649,2.972095 
	C226.909805,2.489636 230.945602,1.666197 235.000000,1.000000 
	C249.354233,1.000000 263.708466,1.000000 278.691132,1.403420 
	C291.979370,3.768808 304.768005,5.132386 317.270447,7.824902 
	C339.186798,12.544786 359.719788,21.039032 379.486572,31.701464 
	C397.573425,41.457718 414.210510,53.174999 429.233948,67.008217 
	C438.801025,75.817345 447.403473,85.731682 455.963257,95.564117 
	C470.034271,111.727203 480.876221,130.010300 489.851257,149.424850 
	C500.731628,172.961090 508.230530,197.460022 511.036316,223.319138 
	C511.461517,227.237640 512.334290,231.107590 513.000000,235.000000 
M273.000000,198.500000 
	C273.000000,173.672424 272.896240,148.844208 273.050354,124.017586 
	C273.113159,113.898613 265.167664,107.384628 257.242096,107.122314 
	C249.572800,106.868492 240.882797,113.735352 240.931229,124.025177 
	C241.106094,161.182312 241.000000,198.340759 241.000000,235.498718 
	C241.000000,237.263229 241.000000,239.027725 241.000000,241.000000 
	C238.784012,241.000000 237.137650,241.000000 235.491272,241.000000 
	C198.333313,241.000000 161.175095,241.076935 124.017578,240.949478 
	C113.899200,240.914764 107.384750,248.832245 107.122322,256.757782 
	C106.868393,264.427124 113.735374,273.117188 124.025047,273.068756 
	C161.182175,272.893890 198.340637,273.000000 235.498596,273.000000 
	C237.263123,273.000000 239.027634,273.000000 241.000000,273.000000 
	C241.000000,275.219147 241.000000,276.863861 241.000000,278.508606 
	C241.000000,315.666565 241.076935,352.824799 240.949448,389.982300 
	C240.914734,400.100830 248.832169,406.615143 256.757660,406.877686 
	C264.426880,407.131775 273.117218,400.264679 273.068787,389.975037 
	C272.893951,352.817902 273.000000,315.659454 273.000000,278.501495 
	C273.000000,276.736969 273.000000,274.972443 273.000000,273.000000 
	C275.219086,273.000000 276.863800,273.000000 278.508514,273.000000 
	C315.666473,273.000000 352.824707,272.923035 389.982208,273.050568 
	C400.100647,273.085297 406.615173,265.167877 406.877686,257.242401 
	C407.131744,249.573105 400.264832,240.882858 389.975098,240.931259 
	C352.817963,241.106064 315.659515,241.000000 278.501556,241.000000 
	C276.737030,241.000000 274.972504,241.000000 273.000000,241.000000 
	C273.000000,226.783447 273.000000,213.141724 273.000000,198.500000 
z"/>
<path fill="#FFFFFF" opacity="1.000000" stroke="none" 
	d="
M513.000000,234.531342 
	C512.334290,231.107590 511.461517,227.237640 511.036316,223.319138 
	C508.230530,197.460022 500.731628,172.961090 489.851257,149.424850 
	C480.876221,130.010300 470.034271,111.727203 455.963257,95.564117 
	C447.403473,85.731682 438.801025,75.817345 429.233948,67.008217 
	C414.210510,53.174999 397.573425,41.457718 379.486572,31.701464 
	C359.719788,21.039032 339.186798,12.544786 317.270447,7.824902 
	C304.768005,5.132386 291.979370,3.768808 279.159790,1.403420 
	C356.927032,1.000000 434.854095,1.000000 513.000000,1.000000 
	C513.000000,78.687424 513.000000,156.375061 513.000000,234.531342 
z"/>
<path fill="#FFFFFF" opacity="1.000000" stroke="none" 
	d="
M279.468658,513.000000 
	C282.892426,512.334290 286.762360,511.461578 290.680878,511.036407 
	C316.540009,508.230621 341.038910,500.731598 364.575134,489.851227 
	C383.989716,480.876221 402.272766,470.034180 418.435852,455.963226 
	C428.268341,447.403473 438.182678,438.801056 446.991791,429.233978 
	C460.824951,414.210541 472.542267,397.573456 482.298492,379.486603 
	C492.960938,359.719818 501.455170,339.186859 506.175018,317.270508 
	C508.867523,304.768066 510.231140,291.979431 512.596558,279.159821 
	C513.000000,356.927032 513.000000,434.854095 513.000000,513.000000 
	C435.312561,513.000000 357.624939,513.000000 279.468658,513.000000 
z"/>
<path fill="#FFFFFF" opacity="1.000000" stroke="none" 
	d="
M234.531342,1.000000 
	C230.945602,1.666197 226.909805,2.489636 222.833649,2.972095 
	C202.268158,5.406270 182.493866,10.722448 163.197678,18.248610 
	C145.300140,25.229252 128.475235,34.147099 112.671654,44.932613 
	C94.469231,57.355263 78.292892,72.062508 63.668461,88.640778 
	C48.793919,105.502571 36.581573,124.043503 26.576378,144.030182 
	C16.561260,164.036682 9.715297,185.243515 5.088576,207.119919 
	C3.583403,214.236801 2.856441,221.518265 1.386770,228.862213 
	C1.000000,153.072006 1.000000,77.144012 1.000000,1.000000 
	C78.687431,1.000000 156.375061,1.000000 234.531342,1.000000 
z"/>
<path fill="#FFFFFF" opacity="1.000000" stroke="none" 
	d="
M1.000001,285.468658 
	C2.331577,291.191223 3.979166,297.334229 4.932540,303.583160 
	C7.319791,319.230438 11.852645,334.254272 17.485603,348.980713 
	C24.681969,367.794403 34.175903,385.375671 45.470314,402.065948 
	C56.857033,418.892700 70.307114,433.915314 85.212273,447.547821 
	C102.806465,463.639801 122.532051,476.863800 143.941513,487.408783 
	C164.016373,497.296478 185.137253,504.376801 207.035263,508.845673 
	C216.100479,510.695648 225.456604,511.120270 234.840210,512.596558 
	C157.073914,513.000000 79.147827,513.000000 1.000000,513.000000 
	C1.000000,437.312592 1.000000,361.624939 1.000001,285.468658 
z"/>
<path fill="#FFFFFF" opacity="1.000000" stroke="none" 
	d="
M273.000000,199.000000 
	C273.000000,213.141724 273.000000,226.783447 273.000000,241.000000 
	C274.972504,241.000000 276.737030,241.000000 278.501556,241.000000 
	C315.659515,241.000000 352.817963,241.106064 389.975098,240.931259 
	C400.264832,240.882858 407.131744,249.573105 406.877686,257.242401 
	C406.615173,265.167877 400.100647,273.085297 389.982208,273.050568 
	C352.824707,272.923035 315.666473,273.000000 278.508514,273.000000 
	C276.863800,273.000000 275.219086,273.000000 273.000000,273.000000 
	C273.000000,274.972443 273.000000,276.736969 273.000000,278.501495 
	C273.000000,315.659454 272.893951,352.817902 273.068787,389.975037 
	C273.117218,400.264679 264.426880,407.131775 256.757660,406.877686 
	C248.832169,406.615143 240.914734,400.100830 240.949448,389.982300 
	C241.076935,352.824799 241.000000,315.666565 241.000000,278.508606 
	C241.000000,276.863861 241.000000,275.219147 241.000000,273.000000 
	C239.027634,273.000000 237.263123,273.000000 235.498596,273.000000 
	C198.340637,273.000000 161.182175,272.893890 124.025047,273.068756 
	C113.735374,273.117188 106.868393,264.427124 107.122322,256.757782 
	C107.384750,248.832245 113.899200,240.914764 124.017578,240.949478 
	C161.175095,241.076935 198.333313,241.000000 235.491272,241.000000 
	C237.137650,241.000000 238.784012,241.000000 241.000000,241.000000 
	C241.000000,239.027725 241.000000,237.263229 241.000000,235.498718 
	C241.000000,198.340759 241.106094,161.182312 240.931229,124.025177 
	C240.882797,113.735352 249.572800,106.868492 257.242096,107.122314 
	C265.167664,107.384628 273.113159,113.898613 273.050354,124.017586 
	C272.896240,148.844208 273.000000,173.672424 273.000000,199.000000 
z"/>
</svg>